<svg xmlns="http://www.w3.org/2000/svg" viewBox="0 0 32 32">
  <defs>
    <linearGradient id="bg" x1="0%" y1="0%" x2="100%" y2="100%">
      <stop offset="0%" stop-color="#38bdf8"/>
      <stop offset="100%" stop-color="#6366f1"/>
    </linearGradient>
  </defs>
  <rect width="32" height="32" rx="7" fill="url(#bg)"/>

  <!-- Gear teeth (8) -->
  <g fill="#fbbf24" stroke="#92400e" stroke-width="0.8">
    <rect x="14" y="4.5" width="4" height="4" rx="1.2" transform="rotate(0,16,16.5)"/>
    <rect x="14" y="4.5" width="4" height="4" rx="1.2" transform="rotate(45,16,16.5)"/>
    <rect x="14" y="4.5" width="4" height="4" rx="1.2" transform="rotate(90,16,16.5)"/>
    <rect x="14" y="4.5" width="4" height="4" rx="1.2" transform="rotate(135,16,16.5)"/>
    <rect x="14" y="4.5" width="4" height="4" rx="1.2" transform="rotate(180,16,16.5)"/>
    <rect x="14" y="4.5" width="4" height="4" rx="1.2" transform="rotate(225,16,16.5)"/>
    <rect x="14" y="4.5" width="4" height="4" rx="1.2" transform="rotate(270,16,16.5)"/>
    <rect x="14" y="4.5" width="4" height="4" rx="1.2" transform="rotate(315,16,16.5)"/>
  </g>
  <!-- Gear body -->
  <circle cx="16" cy="16.5" r="9" fill="#fbbf24" stroke="#92400e" stroke-width="1"/>

  <!-- Eyes -->
  <ellipse cx="13" cy="15.5" rx="2.8" ry="3.2" fill="white"/>
  <circle cx="13.8" cy="15" r="1.8" fill="#1e293b"/>
  <circle cx="14.5" cy="14" r="0.8" fill="white"/>

  <ellipse cx="19" cy="15.5" rx="2.8" ry="3.2" fill="white"/>
  <circle cx="19.8" cy="15" r="1.8" fill="#1e293b"/>
  <circle cx="20.5" cy="14" r="0.8" fill="white"/>

  <!-- Smile -->
  <path d="M12,20 Q16,23.5 20,20" fill="#78350f" stroke="#78350f" stroke-width="0.8"/>
  <path d="M12.3,20 Q16,23.2 19.7,20" fill="#fef3c7"/>

  <!-- Sparkle -->
  <path d="M27,5 L27.6,7 L29.6,7.6 L27.6,8.2 L27,10.2 L26.4,8.2 L24.4,7.6 L26.4,7 Z" fill="white" opacity="0.9"/>
</svg>