<svg xmlns="http://www.w3.org/2000/svg" viewBox="0 0 200 200" width="200" height="200">
  <defs>
    <linearGradient id="bg" x1="0%" y1="0%" x2="100%" y2="100%">
      <stop offset="0%" stop-color="#38bdf8"/>
      <stop offset="100%" stop-color="#6366f1"/>
    </linearGradient>
  </defs>

  <!-- Background -->
  <rect x="10" y="10" width="180" height="180" rx="40" fill="url(#bg)"/>

  <!-- === Gear Character: center (100, 105) === -->

  <!-- Gear teeth (8 rounded rects, drawn BEHIND body) -->
  <g fill="#fbbf24" stroke="#92400e" stroke-width="3">
    <rect x="91" y="48" width="18" height="18" rx="5" transform="rotate(0,100,105)"/>
    <rect x="91" y="48" width="18" height="18" rx="5" transform="rotate(45,100,105)"/>
    <rect x="91" y="48" width="18" height="18" rx="5" transform="rotate(90,100,105)"/>
    <rect x="91" y="48" width="18" height="18" rx="5" transform="rotate(135,100,105)"/>
    <rect x="91" y="48" width="18" height="18" rx="5" transform="rotate(180,100,105)"/>
    <rect x="91" y="48" width="18" height="18" rx="5" transform="rotate(225,100,105)"/>
    <rect x="91" y="48" width="18" height="18" rx="5" transform="rotate(270,100,105)"/>
    <rect x="91" y="48" width="18" height="18" rx="5" transform="rotate(315,100,105)"/>
  </g>

  <!-- Main gear body (on top of teeth to hide bases) -->
  <circle cx="100" cy="105" r="46" fill="#fbbf24" stroke="#92400e" stroke-width="3.5"/>

  <!-- Highlight arc (gives 3D cartoon shine) -->
  <path d="M64,90 Q100,72 136,90" fill="none" stroke="#fde68a" stroke-width="7" stroke-linecap="round" opacity="0.55"/>

  <!-- Left eye -->
  <ellipse cx="83" cy="97" rx="14" ry="16" fill="white" stroke="#78350f" stroke-width="2.5"/>
  <circle cx="87" cy="95" r="8" fill="#1e293b"/>
  <circle cx="90" cy="91" r="3.2" fill="white"/>
  <circle cx="84" cy="98" r="1.5" fill="white" opacity="0.6"/>

  <!-- Right eye -->
  <ellipse cx="117" cy="97" rx="14" ry="16" fill="white" stroke="#78350f" stroke-width="2.5"/>
  <circle cx="121" cy="95" r="8" fill="#1e293b"/>
  <circle cx="124" cy="91" r="3.2" fill="white"/>
  <circle cx="118" cy="98" r="1.5" fill="white" opacity="0.6"/>

  <!-- Eyebrows (playful raised) -->
  <path d="M72,80 Q83,73 94,79" fill="none" stroke="#78350f" stroke-width="2.5" stroke-linecap="round"/>
  <path d="M106,79 Q117,73 128,80" fill="none" stroke="#78350f" stroke-width="2.5" stroke-linecap="round"/>

  <!-- Big open smile -->
  <path d="M76,117 Q100,140 124,117" fill="#78350f" stroke="#78350f" stroke-width="3" stroke-linejoin="round"/>
  <!-- Mouth interior -->
  <path d="M78,117 Q100,138 122,117" fill="#fef3c7"/>
  <!-- Tongue -->
  <ellipse cx="100" cy="130" rx="10" ry="7" fill="#fb7185" opacity="0.7"/>

  <!-- Rosy cheeks -->
  <ellipse cx="64" cy="110" rx="10" ry="7" fill="#fb923c" opacity="0.35"/>
  <ellipse cx="136" cy="110" rx="10" ry="7" fill="#fb923c" opacity="0.35"/>

  <!-- Sparkle stars -->
  <g fill="white">
    <path d="M163,34 L165.5,43 L174,45.5 L165.5,48 L163,57 L160.5,48 L152,45.5 L160.5,43 Z"/>
    <path d="M37,153 L38.8,158 L43.8,159.8 L38.8,161.5 L37,166.5 L35.2,161.5 L30.2,159.8 L35.2,158 Z"/>
    <circle cx="174" cy="60" r="2.5"/>
    <circle cx="27" cy="147" r="2"/>
    <circle cx="153" cy="27" r="1.8"/>
  </g>
</svg>